<?xml version="1.0" encoding="utf-8"?>
<!-- Generator: Adobe Illustrator 21.0.0, SVG Export Plug-In . SVG Version: 6.00 Build 0)  -->
<svg version="1.1"
	 id="svg3828" inkscape:version="0.92.2 (5c3e80d, 2017-08-06)" sodipodi:docname="seafile-new.svg" xmlns:cc="http://creativecommons.org/ns#" xmlns:dc="http://purl.org/dc/elements/1.1/" xmlns:inkscape="http://www.inkscape.org/namespaces/inkscape" xmlns:rdf="http://www.w3.org/1999/02/22-rdf-syntax-ns#" xmlns:sodipodi="http://sodipodi.sourceforge.net/DTD/sodipodi-0.dtd" xmlns:svg="http://www.w3.org/2000/svg"
	 xmlns="http://www.w3.org/2000/svg" xmlns:xlink="http://www.w3.org/1999/xlink" x="0px" y="0px" viewBox="0 0 170.7 170.7"
	 style="enable-background:new 0 0 170.7 170.7;" xml:space="preserve">
<style type="text/css">
	.st0{fill:#452F27;}
	.st1{fill:#FF5A00;}
</style>
<sodipodi:namedview  bordercolor="#666666" borderopacity="1" gridtolerance="10" guidetolerance="10" id="namedview3830" inkscape:current-layer="svg3828" inkscape:cx="85.333336" inkscape:cy="85.333336" inkscape:pageopacity="0" inkscape:pageshadow="2" inkscape:window-height="480" inkscape:window-maximized="0" inkscape:window-width="640" inkscape:window-x="0" inkscape:window-y="0" inkscape:zoom="1.3828125" objecttolerance="10" pagecolor="#ffffff" showgrid="false">
	</sodipodi:namedview>
<g>
	<path class="st0" d="M137,10.5H34c-13.4,0-24.3,10.9-24.3,24.3v103.1c0,13.4,10.9,24.3,24.3,24.3H137c13.4,0,24.3-10.9,24.3-24.3
		V34.8C161.3,21.4,150.4,10.5,137,10.5z"/>
	<path class="st1" d="M122.4,57.1l-15.8-15.8c-1.7-1.7-4-2.7-6.4-2.7H61.7c-5,0-9,4.1-9,9.1v78.4c0,5,4.1,9,9,9H116c5,0,9-4.1,9-9
		V63.5C125,61.1,124,58.8,122.4,57.1z M115.2,62.8h-14.3V48.5L115.2,62.8z M61.7,126.1V47.7h30.2v19.6c0,2.5,2,4.5,4.5,4.5H116v54.3
		H61.7z"/>
	<g>
		<path class="st1" d="M98.5,89.7H77.4c-1.3,0-2.3,1-2.3,2.3v14.9c0,1.3,1,2.3,2.3,2.3h21.1c1.3,0,2.3-1,2.3-2.3V92
			C100.8,90.8,99.7,89.7,98.5,89.7z M89.9,99.1v5H86v-5c-0.7-0.6-1.1-1.4-1.1-2.4c0-1.7,1.4-3.1,3.1-3.1c1.7,0,3.1,1.4,3.1,3.1
			C91,97.7,90.6,98.6,89.9,99.1z"/>
		<path class="st1" d="M84.2,87.4v-4.2c0-2.7,1.1-4.8,2.5-4.8h2.5c1.4,0,2.5,2.2,2.5,4.8v4.2h4.5v-8.2c0-2.7-2.5-4.8-5.5-4.8h-5.5
			c-3,0-5.5,2.2-5.5,4.8v8.2H84.2z"/>
	</g>
	<path class="st1" d="M148.2,48.1c0,3.4-2.7,6.1-6.1,6.1c-3.4,0-6.1-2.7-6.1-6.1c0-0.3,0-0.5,0-0.8l-8.8-4.4c-1,0.7-2.2,1.1-3.5,1.1
		c-3.4,0-6.1-2.7-6.1-6.1s2.7-6.1,6.1-6.1c1.2,0,2.4,0.4,3.5,1.1l8.8-4.4c0-0.2,0-0.5,0-0.8c0-3.4,2.7-6.1,6.1-6.1
		c3.4,0,6.1,2.7,6.1,6.1s-2.7,6.1-6.1,6.1c-1.6,0-3.1-0.7-4.2-1.7l-8.2,4.1c0.3,1.1,0.3,2.3,0,3.3l8.2,4.1c1.1-1.1,2.6-1.7,4.2-1.7
		C145.4,42,148.2,44.7,148.2,48.1z"/>
</g>
</svg>
